{
   "accessors" : [
      {
         "bufferView" : 2,
         "byteOffset" : 0,
         "componentType" : 5126,
         "count" : 556,
         "max" : [ 0.729918897151947, 0.3250369727611542, 0.06190747767686844, 1 ],
         "min" : [ 0.1939721554517746, 0.08919350802898407, 0.05459228157997131, 1 ],
         "name" : "accessor_color_m0-PolyPaper20_-45754",
         "type" : "VEC4"
      },
      {
         "bufferView" : 0,
         "byteOffset" : 0,
         "componentType" : 5123,
         "count" : 804,
         "max" : [ 555 ],
         "min" : [ 0 ],
         "name" : "accessor_indices_0_m0-PolyPaper20_-45754",
         "type" : "SCALAR"
      },
      {
         "bufferView" : 1,
         "byteOffset" : 6672,
         "componentType" : 5126,
         "count" : 556,
         "max" : [ 0.9976043, 0.9995277, 0.9933836 ],
         "min" : [ -0.9943871, -0.9989765, -0.9938017 ],
         "name" : "accessor_normal_m0-PolyPaper20_-45754",
         "type" : "VEC3"
      },
      {
         "bufferView" : 1,
         "byteOffset" : 0,
         "componentType" : 5126,
         "count" : 556,
         "max" : [ 0.629189, 1.878965, 0.3917547 ],
         "min" : [ -0.3126609, 1.384226, -0.1353017 ],
         "name" : "accessor_position_m0-PolyPaper20_-45754",
         "type" : "VEC3"
      }
   ],
   "asset" : {
      "copyright" : "Unknown",
      "extras" : {
         "GOOGLE_processor_version" : 294144208
      },
      "generator" : "glTF 1-to-2 Upgrader for Google Blocks",
      "version" : "2.0"
   },
   "bufferViews" : [
      {
         "buffer" : 0,
         "byteLength" : 1608,
         "byteOffset" : 0,
         "name" : "ushortBufferView",
         "target" : 34963
      },
      {
         "buffer" : 0,
         "byteLength" : 13344,
         "byteOffset" : 1608,
         "byteStride" : 12,
         "name" : "vec3BufferView",
         "target" : 34962
      },
      {
         "buffer" : 0,
         "byteLength" : 8896,
         "byteOffset" : 14952,
         "byteStride" : 16,
         "name" : "vec4BufferView",
         "target" : 34962
      }
   ],
   "buffers" : [
      {
         "byteLength" : 23848,
         "name" : "model",
         "uri" : "model.bin"
      }
   ],
   "cameras" : [
      {
         "perspective" : {
            "yfov" : 0.7853981633974483,
            "znear" : 0.1000000014901161
         },
         "type" : "perspective"
      }
   ],
   "extensions" : {
      "KHR_lights_punctual" : {
         "lights" : [
            {
               "color" : [ 1, 0.9333333333333333, 0.8666666666666667 ],
               "intensity" : 0.25,
               "name" : "headLight",
               "type" : "directional"
            },
            {
               "color" : [ 1, 0.9333333333333333, 0.8666666666666667 ],
               "intensity" : 0.324999988079071,
               "name" : "keyLight",
               "type" : "directional"
            }
         ]
      }
   },
   "extensionsUsed" : [ "GOOGLE_backgrounds", "GOOGLE_camera_settings", "KHR_lights_punctual" ],
   "extras" : {
      "GOOGLE_initial_camera_motion" : {
         "motionPath" : "FULL_ROTATION"
      },
      "GOOGLE_lighting_rig" : {
         "disableShadows" : false
      }
   },
   "materials" : [
      {
         "alphaMode" : "OPAQUE",
         "doubleSided" : false,
         "name" : "BlocksPaper",
         "pbrMetallicRoughness" : {
            "baseColorFactor" : [ 1, 1, 1, 1 ],
            "metallicFactor" : 0,
            "roughnessFactor" : 0.6
         }
      },
      {
         "alphaMode" : "BLEND",
         "doubleSided" : false,
         "name" : "BlocksGlass",
         "pbrMetallicRoughness" : {
            "baseColorFactor" : [ 0.2, 0.2, 1, 0.3 ],
            "metallicFactor" : 1,
            "roughnessFactor" : 0.4
         }
      },
      {
         "alphaMode" : "OPAQUE",
         "doubleSided" : true,
         "name" : "BlocksGem",
         "pbrMetallicRoughness" : {
            "baseColorFactor" : [ 1, 0.4, 1, 1 ],
            "metallicFactor" : 0,
            "roughnessFactor" : 0.1
         }
      }
   ],
   "meshes" : [
      {
         "name" : "mesh_m0-PolyPaper20_-45754",
         "primitives" : [
            {
               "attributes" : {
                  "COLOR_0" : 0,
                  "NORMAL" : 2,
                  "POSITION" : 3
               },
               "indices" : 1,
               "material" : 0,
               "mode" : 4
            }
         ]
      }
   ],
   "nodes" : [
      {
         "mesh" : 0,
         "name" : "node_MeshObject-400393664-PolyPaper20"
      },
      {
         "children" : [ 2 ]
      },
      {
         "children" : [ 3 ],
         "extras" : {
            "isTransformNode" : 1
         },
         "translation" : [ 0.1554603711738139, 1.666858861131324, 0.1287679529493171 ]
      },
      {
         "children" : [ 0 ],
         "translation" : [ -0.1554603711738139, -1.666858861131324, -0.1287679529493171 ]
      },
      {
         "camera" : 0,
         "children" : [ 5 ],
         "rotation" : [
            -0.2219240542792782,
            -0.2518950318538157,
            -0.05946428056213498,
            0.9400864887853888
         ],
         "translation" : [ -0.6653652136242103, 2.487600565040658, 1.550373562627925 ]
      },
      {
         "extensions" : {
            "KHR_lights_punctual" : {
               "light" : 0
            }
         },
         "extras" : {
            "isHeadLight" : 1
         },
         "name" : "headLightNode",
         "translation" : [ -0.6411483228096791, 0.3205741614048396, 0.3205741614048396 ]
      },
      {
         "extensions" : {
            "KHR_lights_punctual" : {
               "light" : 1
            }
         },
         "extras" : {
            "isKeyLight" : 1
         },
         "name" : "keyLightNode",
         "rotation" : [ -0.7505326882858236, -0.3752663441429118, 0, 0.5439447166468927 ],
         "scale" : [ 0, 0, 0.647559806037776 ],
         "translation" : [ -0.4921409193351878, 2.861133779291737, -0.5513402374138895 ]
      }
   ],
   "scene" : 0,
   "scenes" : [
      {
         "extensions" : {
            "GOOGLE_backgrounds" : {
               "color" : [ 0, 0.7372549019607844, 0.8313725490196079 ]
            },
            "GOOGLE_camera_settings" : {
               "pivot" : [ 0, 0, 0 ]
            }
         },
         "extras" : {
            "GOOGLE_camera_index" : {
               "cameraIndex" : 0,
               "nodeIndex" : 4
            },
            "GOOGLE_geometry_data" : {
               "stats" : {
                  "centroid" : [ 0.1554188867025881, 1.566014167216184, 0.09621956862388648 ],
                  "radius" : 0.6411483228096791,
                  "stdev" : 0.3801047776358483
               },
               "visualCenterPoint" : [ 0.1554603711738139, 1.666858861131324, 0.1287679529493171 ]
            },
            "GOOGLE_hemi_light" : {
               "groundColor" : [ 0, 0.7372549019607844, 0.8313725490196079 ]
            }
         },
         "name" : "defaultScene",
         "nodes" : [ 1, 4, 6 ]
      }
   ]
}
