{
   "accessors" : [
      {
         "bufferView" : 2,
         "byteOffset" : 0,
         "componentType" : 5126,
         "count" : 336,
         "max" : [ 0.6800203323364258, 0.6800203323364258, 0.6800203323364258, 0.2509804 ],
         "min" : [ 0.6800203323364258, 0.6800203323364258, 0.6800203323364258, 0.2509804 ],
         "name" : "accessor_color_m0-PolyGlass24_-543224",
         "type" : "VEC4"
      },
      {
         "bufferView" : 2,
         "byteOffset" : 5376,
         "componentType" : 5126,
         "count" : 8346,
         "max" : [ 1, 1, 1, 1 ],
         "min" : [ 0, 0.09387587010860443, 0, 1 ],
         "name" : "accessor_color_m1-PolyPaper15_-541806",
         "type" : "VEC4"
      },
      {
         "bufferView" : 0,
         "byteOffset" : 0,
         "componentType" : 5123,
         "count" : 600,
         "max" : [ 335 ],
         "min" : [ 0 ],
         "name" : "accessor_indices_0_m0-PolyGlass24_-543224",
         "type" : "SCALAR"
      },
      {
         "bufferView" : 0,
         "byteOffset" : 1200,
         "componentType" : 5123,
         "count" : 13164,
         "max" : [ 8345 ],
         "min" : [ 0 ],
         "name" : "accessor_indices_0_m1-PolyPaper15_-541806",
         "type" : "SCALAR"
      },
      {
         "bufferView" : 1,
         "byteOffset" : 4032,
         "componentType" : 5126,
         "count" : 336,
         "max" : [ 1, 1, 1 ],
         "min" : [ -1, -1, -1 ],
         "name" : "accessor_normal_m0-PolyGlass24_-543224",
         "type" : "VEC3"
      },
      {
         "bufferView" : 1,
         "byteOffset" : 108216,
         "componentType" : 5126,
         "count" : 8346,
         "max" : [ 1, 1, 1 ],
         "min" : [ -1, -1, -1 ],
         "name" : "accessor_normal_m1-PolyPaper15_-541806",
         "type" : "VEC3"
      },
      {
         "bufferView" : 1,
         "byteOffset" : 0,
         "componentType" : 5126,
         "count" : 336,
         "max" : [ 0.814967, 1.550024, 1.955031 ],
         "min" : [ -0.3900027, -0.39998, -0.1149696 ],
         "name" : "accessor_position_m0-PolyGlass24_-543224",
         "type" : "VEC3"
      },
      {
         "bufferView" : 1,
         "byteOffset" : 8064,
         "componentType" : 5126,
         "count" : 8346,
         "max" : [ 0.9000278, 1.75003, 2.261775 ],
         "min" : [ -0.5200334, -0.5500381, -0.4100289 ],
         "name" : "accessor_position_m1-PolyPaper15_-541806",
         "type" : "VEC3"
      }
   ],
   "asset" : {
      "copyright" : "Unknown",
      "extras" : {
         "GOOGLE_processor_version" : 294144208
      },
      "generator" : "glTF 1-to-2 Upgrader for Google Blocks",
      "version" : "2.0"
   },
   "bufferViews" : [
      {
         "buffer" : 0,
         "byteLength" : 27528,
         "byteOffset" : 0,
         "name" : "ushortBufferView",
         "target" : 34963
      },
      {
         "buffer" : 0,
         "byteLength" : 208368,
         "byteOffset" : 27528,
         "byteStride" : 12,
         "name" : "vec3BufferView",
         "target" : 34962
      },
      {
         "buffer" : 0,
         "byteLength" : 138912,
         "byteOffset" : 235896,
         "byteStride" : 16,
         "name" : "vec4BufferView",
         "target" : 34962
      }
   ],
   "buffers" : [
      {
         "byteLength" : 374808,
         "name" : "model",
         "uri" : "model.bin"
      }
   ],
   "cameras" : [
      {
         "perspective" : {
            "yfov" : 0.7853981633974483,
            "znear" : 0.1000000014901161
         },
         "type" : "perspective"
      }
   ],
   "extensions" : {
      "KHR_lights_punctual" : {
         "lights" : [
            {
               "color" : [ 1, 0.9333333333333333, 0.8666666666666667 ],
               "intensity" : 0.25,
               "name" : "headLight",
               "type" : "directional"
            },
            {
               "color" : [ 1, 0.9333333333333333, 0.8666666666666667 ],
               "intensity" : 0.324999988079071,
               "name" : "keyLight",
               "type" : "directional"
            }
         ]
      }
   },
   "extensionsUsed" : [ "GOOGLE_backgrounds", "GOOGLE_camera_settings", "KHR_lights_punctual" ],
   "extras" : {
      "GOOGLE_initial_camera_motion" : {
         "motionPath" : "FULL_ROTATION"
      },
      "GOOGLE_lighting_rig" : {
         "disableShadows" : false
      }
   },
   "materials" : [
      {
         "alphaMode" : "OPAQUE",
         "doubleSided" : false,
         "name" : "BlocksPaper",
         "pbrMetallicRoughness" : {
            "baseColorFactor" : [ 1, 1, 1, 1 ],
            "metallicFactor" : 0,
            "roughnessFactor" : 0.6
         }
      },
      {
         "alphaMode" : "BLEND",
         "doubleSided" : false,
         "name" : "BlocksGlass",
         "pbrMetallicRoughness" : {
            "baseColorFactor" : [ 0.2, 0.2, 1, 0.3 ],
            "metallicFactor" : 1,
            "roughnessFactor" : 0.4
         }
      },
      {
         "alphaMode" : "OPAQUE",
         "doubleSided" : true,
         "name" : "BlocksGem",
         "pbrMetallicRoughness" : {
            "baseColorFactor" : [ 1, 0.4, 1, 1 ],
            "metallicFactor" : 0,
            "roughnessFactor" : 0.1
         }
      }
   ],
   "meshes" : [
      {
         "name" : "mesh_m0-PolyGlass24_-543224",
         "primitives" : [
            {
               "attributes" : {
                  "COLOR_0" : 0,
                  "NORMAL" : 4,
                  "POSITION" : 6
               },
               "indices" : 2,
               "material" : 1,
               "mode" : 4
            }
         ]
      },
      {
         "name" : "mesh_m1-PolyPaper15_-541806",
         "primitives" : [
            {
               "attributes" : {
                  "COLOR_0" : 1,
                  "NORMAL" : 5,
                  "POSITION" : 7
               },
               "indices" : 3,
               "material" : 0,
               "mode" : 4
            }
         ]
      }
   ],
   "nodes" : [
      {
         "mesh" : 0,
         "name" : "node_MeshObject-392683968-PolyGlass24"
      },
      {
         "mesh" : 1,
         "name" : "node_MeshObject561412736-PolyPaper15"
      },
      {
         "children" : [ 3 ]
      },
      {
         "children" : [ 4 ],
         "extras" : {
            "isTransformNode" : 1
         },
         "translation" : [ 0.1833176858723164, 0.5933166392147541, 0.932753142528394 ]
      },
      {
         "children" : [ 0, 1 ],
         "translation" : [ -0.1833176858723164, -0.5933166392147541, -0.932753142528394 ]
      },
      {
         "camera" : 0,
         "children" : [ 6 ],
         "rotation" : [
            -0.1355437343049797,
            0.4914221224285235,
            0.07774278047176125,
            0.8567895037656718
         ],
         "translation" : [ 4.260673999786377, 2.138861656188965, 2.902099370956421 ]
      },
      {
         "extensions" : {
            "KHR_lights_punctual" : {
               "light" : 0
            }
         },
         "extras" : {
            "isHeadLight" : 1
         },
         "name" : "headLightNode",
         "translation" : [ -2.428013161889211, 1.214006580944605, 1.214006580944605 ]
      },
      {
         "extensions" : {
            "KHR_lights_punctual" : {
               "light" : 1
            }
         },
         "extras" : {
            "isKeyLight" : 1
         },
         "name" : "keyLightNode",
         "rotation" : [ -0.7505326882858236, -0.3752663441429118, 0, 0.5439447166468927 ],
         "scale" : [ 0, 0, 2.452293293508103 ],
         "translation" : [ -2.257116375558361, 5.514959459443364, -1.928362490525185 ]
      }
   ],
   "scene" : 0,
   "scenes" : [
      {
         "extensions" : {
            "GOOGLE_backgrounds" : {
               "color" : [ 0.3058823529411765, 0.203921568627451, 0.1803921568627451 ]
            },
            "GOOGLE_camera_settings" : {}
         },
         "extras" : {
            "GOOGLE_camera_index" : {
               "cameraIndex" : 0,
               "nodeIndex" : 5
            },
            "GOOGLE_geometry_data" : {
               "stats" : {
                  "centroid" : [ 0.1951769179497425, 0.6103728724271573, 0.5239308029829182 ],
                  "radius" : 2.428013161889211,
                  "stdev" : 1.025549420359717
               },
               "visualCenterPoint" : [ 0.1833176858723164, 0.5933166392147541, 0.932753142528394 ]
            },
            "GOOGLE_hemi_light" : {
               "groundColor" : [ 0.3058823529411765, 0.203921568627451, 0.1803921568627451 ]
            }
         },
         "name" : "defaultScene",
         "nodes" : [ 2, 5, 7 ]
      }
   ]
}
